<svg width="346" height="135" viewBox="0 0 346 135" fill="none" xmlns="http://www.w3.org/2000/svg">
<mask id="path-1-inside-1_125_32" fill="white">
<path fill-rule="evenodd" clip-rule="evenodd" d="M0 36.5V73H173H346V36.5V0H173H0V36.5ZM67 36.5V68H36H5V64.748C5 62.959 7.25 56.187 10 49.698C12.75 43.209 15 37.309 15 36.588C15 35.867 12.75 29.84 10 23.195C7.25 16.55 5 9.738 5 8.057V5H36H67V36.5ZM136 36.5V68H104.5H73V36.5V5H104.5H136V36.5ZM205 36.5V68H173H141V36.5V5H173H205V36.5ZM273 36.5V68H241.5H210V36.5V5H241.5H273V36.5ZM341 36.5V68H309.5H278V36.5V5H309.5H341V36.5ZM31.684 11.449C24.273 14.092 20.711 19.536 18.945 30.917C16.702 45.376 21.023 58.93 29.206 63.105C34.627 65.87 45.516 65.499 49.656 62.407C53.141 59.806 55.744 56.2 56.529 52.887C57.102 50.469 56.812 50.19 52.631 49.137C46.986 47.716 47 47.715 47 49.365C47 50.116 46.067 51.916 44.927 53.365C43.395 55.313 41.944 56 39.362 56C31.674 56 29.998 52.616 30.004 37.101C30.007 28.405 30.353 25.933 31.931 23.345C35.609 17.314 43.775 18.294 46.334 25.073C47.241 27.477 47.82 27.836 49.957 27.321C57.685 25.456 58.237 24.542 54.918 19.097C52.096 14.469 49.276 12.335 44.307 11.069C38.921 9.696 36.385 9.772 31.684 11.449ZM165.637 11.465C157.531 14.355 153.55 21.111 152.378 33.967C151.272 46.1 154.593 57.062 160.813 61.806C163.988 64.228 165.177 64.5 172.599 64.5C182.719 64.5 185.177 63.041 189.489 54.469C192.215 49.053 192.478 47.645 192.476 38.514C192.472 26.272 190.433 19.465 185.462 15.101C179.902 10.219 172.791 8.915 165.637 11.465ZM234.431 10.885C226.022 13.045 221.997 18.152 222.004 26.651C222.01 35.211 226.771 40.23 236.145 41.561C243.709 42.635 247.071 44.057 248.034 46.589C250.037 51.859 246.405 56 239.779 56C234.543 56 231.872 55 228.221 51.673L225.942 49.597L222.731 52.807C218.748 56.79 219.445 58.308 227.107 62.333C231.983 64.894 233.284 65.134 240.677 64.833C249.751 64.463 252.62 63.057 256.838 56.908C258.813 54.028 259.116 52.54 258.794 47.307C258.527 42.979 257.823 40.45 256.456 38.911C253.938 36.077 247.762 33.4 241.793 32.556C235.933 31.727 232.75 29.279 232.75 25.6C232.75 18.334 242.714 17.051 251.241 23.219C252.731 24.297 253.443 24.019 256.163 21.299C258.806 18.656 259.132 17.863 258.091 16.609C254.497 12.28 241.367 9.103 234.431 10.885ZM301.123 10.944C288.017 14.265 284.715 31.262 295.744 38.626C297.528 39.818 302.028 41.322 305.744 41.969C309.46 42.615 313.288 43.857 314.25 44.727C316.633 46.883 316.453 51.547 313.888 54.112C310.806 57.194 301.772 56.454 296.875 52.718L293.358 50.036L290.171 53.323L286.985 56.611L289.742 59.252C293.902 63.237 299.121 65 306.756 65C316.009 65 321.647 62.192 324.75 56.038C327.414 50.755 327.567 47.458 325.399 42.039C323.361 36.946 319.383 34.489 310.533 32.858C303.095 31.488 299.991 29.39 300.015 25.75C300.034 22.939 300.902 21.614 303.684 20.15C307.01 18.399 310.178 18.755 315.574 21.487L320.487 23.975L323.415 21.046C325.95 18.511 326.161 17.899 324.988 16.486C321.173 11.889 308.764 9.007 301.123 10.944ZM88 37.5V64H93.5H99V54V44H101.583C103.879 44 104.679 45.109 108.793 54L113.419 64H119.21C122.394 64 125 63.767 125 63.482C125 63.197 122.743 58.466 119.984 52.968L114.968 42.972L117.508 41.814C125.391 38.222 126.985 22.898 120.22 15.744C116.654 11.972 112.404 11.012 99.25 11.006L88 11V37.5ZM177.694 21.411C180.464 23.791 180.504 23.987 180.789 36.661C181.047 48.115 180.86 49.85 179.054 52.75C177.253 55.64 176.528 56 172.5 56C168.472 56 167.747 55.64 165.946 52.75C164.14 49.85 163.953 48.115 164.211 36.661C164.496 23.987 164.536 23.791 167.306 21.411C170.866 18.352 174.134 18.352 177.694 21.411ZM111.429 21.571C113.55 23.693 113.558 32.292 111.439 34.05C110.581 34.763 107.431 35.548 104.439 35.797L99 36.248V28.124V20H104.429C108.03 20 110.386 20.529 111.429 21.571ZM121.313 81.103C117.211 82.289 112.568 87.949 110.85 93.856C110.074 96.525 109.521 103.005 109.55 109.094C109.595 118.772 109.855 120.2 112.55 125.594C116.107 132.715 119.859 134.998 128 134.995C135.629 134.992 139.419 132.488 142.793 125.224C145.167 120.115 145.451 118.318 145.442 108.5C145.437 102.45 144.866 95.582 144.174 93.237C141.169 83.056 131.783 78.073 121.313 81.103ZM256.275 80.917C248.395 82.921 244.377 88.783 245.296 96.935C245.691 100.436 246.573 102.137 249.282 104.62C252.635 107.692 253.533 107.993 267.171 110.611C277.958 112.682 277.491 127.534 266.561 129.99C260.168 131.426 254.784 129.886 249.736 125.177C247.186 122.799 246.847 122.725 245.349 124.222C243.138 126.433 244.129 128.395 249.126 131.703C252.722 134.084 254.553 134.546 261.426 134.806C267.905 135.051 270.191 134.732 273 133.193C277.668 130.634 280.389 125.791 280.368 120.078C280.336 111.059 276.017 106.989 264.295 104.931C255.711 103.424 252.914 102.039 251.468 98.577C246.694 87.151 263.101 80.004 273.383 89.031C276.684 91.93 276.743 91.941 278.499 90.001C279.992 88.351 280.065 87.783 278.955 86.446C275.265 82 263.394 79.106 256.275 80.917ZM63.299 86.75C63.62 89.912 64.668 101.838 65.629 113.25L67.375 134H71.141C75.477 134 74.95 135.19 79.61 114.876L82.441 102.538L86.163 117.519C88.211 125.759 89.912 132.838 89.943 133.25C89.974 133.662 91.8 134 94 134C97.478 134 98.002 133.706 98.012 131.75C98.018 130.512 98.913 119.6 100 107.5C102.507 79.598 102.523 81 99.697 81C97.414 81 97.38 81.192 95.591 103.75C94.599 116.262 93.703 126.594 93.601 126.709C93.498 126.825 91.693 119.937 89.588 111.405L85.762 95.891L82.681 96.196L79.601 96.5L76.05 110.678C74.098 118.476 72.24 125.111 71.922 125.423C71.603 125.735 70.791 118.455 70.115 109.245C68.005 80.466 68.098 81 65.215 81C62.771 81 62.728 81.128 63.299 86.75ZM157 107.5V134H159.5H162V122.5V111H166.455H170.91L177.705 122.474C184.136 133.332 184.674 133.949 187.751 133.974L191.002 134L184.1 122.75L177.198 111.5L179.849 110.924C187.119 109.343 190.378 104.685 190.432 95.801C190.472 89.183 188.369 85.526 182.929 82.752C180.267 81.394 176.984 81.003 168.25 81.002L157 81V107.5ZM202 107.5V134L212.75 133.996C221.775 133.993 224.032 133.668 226.817 131.97C233.726 127.758 237.387 113.153 235.033 99.195C232.726 85.52 226.827 81 211.288 81H202V107.5ZM133.033 86.517C138.411 89.298 139.5 92.915 139.5 108C139.5 119.543 139.222 121.96 137.581 124.672C135.127 128.726 131.794 130.487 126.823 130.357C121.352 130.213 117.44 126.323 115.915 119.512C114.295 112.271 115.133 95.405 117.319 91.275C120.364 85.521 127.139 83.469 133.033 86.517ZM182.545 88.455C186.008 91.917 186.03 99.691 182.587 103.694C180.326 106.323 179.602 106.522 171.087 106.849L162 107.199V96.599V86H171.045C179.316 86 180.301 86.21 182.545 88.455ZM222.478 87.172C223.892 87.816 226.051 89.954 227.275 91.922C229.253 95.102 229.5 96.833 229.5 107.5C229.5 120.665 228.597 123.768 223.718 127.379C221.717 128.861 218.981 129.549 213.968 129.832L207 130.226V108.113V86H213.453C217.002 86 221.063 86.527 222.478 87.172Z"/>
</mask>
<path fill-rule="evenodd" clip-rule="evenodd" d="M0 36.5V73H173H346V36.5V0H173H0V36.5ZM67 36.5V68H36H5V64.748C5 62.959 7.25 56.187 10 49.698C12.75 43.209 15 37.309 15 36.588C15 35.867 12.75 29.84 10 23.195C7.25 16.55 5 9.738 5 8.057V5H36H67V36.5ZM136 36.5V68H104.5H73V36.5V5H104.5H136V36.5ZM205 36.5V68H173H141V36.5V5H173H205V36.5ZM273 36.5V68H241.5H210V36.5V5H241.5H273V36.5ZM341 36.5V68H309.5H278V36.5V5H309.5H341V36.5ZM31.684 11.449C24.273 14.092 20.711 19.536 18.945 30.917C16.702 45.376 21.023 58.93 29.206 63.105C34.627 65.87 45.516 65.499 49.656 62.407C53.141 59.806 55.744 56.2 56.529 52.887C57.102 50.469 56.812 50.19 52.631 49.137C46.986 47.716 47 47.715 47 49.365C47 50.116 46.067 51.916 44.927 53.365C43.395 55.313 41.944 56 39.362 56C31.674 56 29.998 52.616 30.004 37.101C30.007 28.405 30.353 25.933 31.931 23.345C35.609 17.314 43.775 18.294 46.334 25.073C47.241 27.477 47.82 27.836 49.957 27.321C57.685 25.456 58.237 24.542 54.918 19.097C52.096 14.469 49.276 12.335 44.307 11.069C38.921 9.696 36.385 9.772 31.684 11.449ZM165.637 11.465C157.531 14.355 153.55 21.111 152.378 33.967C151.272 46.1 154.593 57.062 160.813 61.806C163.988 64.228 165.177 64.5 172.599 64.5C182.719 64.5 185.177 63.041 189.489 54.469C192.215 49.053 192.478 47.645 192.476 38.514C192.472 26.272 190.433 19.465 185.462 15.101C179.902 10.219 172.791 8.915 165.637 11.465ZM234.431 10.885C226.022 13.045 221.997 18.152 222.004 26.651C222.01 35.211 226.771 40.23 236.145 41.561C243.709 42.635 247.071 44.057 248.034 46.589C250.037 51.859 246.405 56 239.779 56C234.543 56 231.872 55 228.221 51.673L225.942 49.597L222.731 52.807C218.748 56.79 219.445 58.308 227.107 62.333C231.983 64.894 233.284 65.134 240.677 64.833C249.751 64.463 252.62 63.057 256.838 56.908C258.813 54.028 259.116 52.54 258.794 47.307C258.527 42.979 257.823 40.45 256.456 38.911C253.938 36.077 247.762 33.4 241.793 32.556C235.933 31.727 232.75 29.279 232.75 25.6C232.75 18.334 242.714 17.051 251.241 23.219C252.731 24.297 253.443 24.019 256.163 21.299C258.806 18.656 259.132 17.863 258.091 16.609C254.497 12.28 241.367 9.103 234.431 10.885ZM301.123 10.944C288.017 14.265 284.715 31.262 295.744 38.626C297.528 39.818 302.028 41.322 305.744 41.969C309.46 42.615 313.288 43.857 314.25 44.727C316.633 46.883 316.453 51.547 313.888 54.112C310.806 57.194 301.772 56.454 296.875 52.718L293.358 50.036L290.171 53.323L286.985 56.611L289.742 59.252C293.902 63.237 299.121 65 306.756 65C316.009 65 321.647 62.192 324.75 56.038C327.414 50.755 327.567 47.458 325.399 42.039C323.361 36.946 319.383 34.489 310.533 32.858C303.095 31.488 299.991 29.39 300.015 25.75C300.034 22.939 300.902 21.614 303.684 20.15C307.01 18.399 310.178 18.755 315.574 21.487L320.487 23.975L323.415 21.046C325.95 18.511 326.161 17.899 324.988 16.486C321.173 11.889 308.764 9.007 301.123 10.944ZM88 37.5V64H93.5H99V54V44H101.583C103.879 44 104.679 45.109 108.793 54L113.419 64H119.21C122.394 64 125 63.767 125 63.482C125 63.197 122.743 58.466 119.984 52.968L114.968 42.972L117.508 41.814C125.391 38.222 126.985 22.898 120.22 15.744C116.654 11.972 112.404 11.012 99.25 11.006L88 11V37.5ZM177.694 21.411C180.464 23.791 180.504 23.987 180.789 36.661C181.047 48.115 180.86 49.85 179.054 52.75C177.253 55.64 176.528 56 172.5 56C168.472 56 167.747 55.64 165.946 52.75C164.14 49.85 163.953 48.115 164.211 36.661C164.496 23.987 164.536 23.791 167.306 21.411C170.866 18.352 174.134 18.352 177.694 21.411ZM111.429 21.571C113.55 23.693 113.558 32.292 111.439 34.05C110.581 34.763 107.431 35.548 104.439 35.797L99 36.248V28.124V20H104.429C108.03 20 110.386 20.529 111.429 21.571ZM121.313 81.103C117.211 82.289 112.568 87.949 110.85 93.856C110.074 96.525 109.521 103.005 109.55 109.094C109.595 118.772 109.855 120.2 112.55 125.594C116.107 132.715 119.859 134.998 128 134.995C135.629 134.992 139.419 132.488 142.793 125.224C145.167 120.115 145.451 118.318 145.442 108.5C145.437 102.45 144.866 95.582 144.174 93.237C141.169 83.056 131.783 78.073 121.313 81.103ZM256.275 80.917C248.395 82.921 244.377 88.783 245.296 96.935C245.691 100.436 246.573 102.137 249.282 104.62C252.635 107.692 253.533 107.993 267.171 110.611C277.958 112.682 277.491 127.534 266.561 129.99C260.168 131.426 254.784 129.886 249.736 125.177C247.186 122.799 246.847 122.725 245.349 124.222C243.138 126.433 244.129 128.395 249.126 131.703C252.722 134.084 254.553 134.546 261.426 134.806C267.905 135.051 270.191 134.732 273 133.193C277.668 130.634 280.389 125.791 280.368 120.078C280.336 111.059 276.017 106.989 264.295 104.931C255.711 103.424 252.914 102.039 251.468 98.577C246.694 87.151 263.101 80.004 273.383 89.031C276.684 91.93 276.743 91.941 278.499 90.001C279.992 88.351 280.065 87.783 278.955 86.446C275.265 82 263.394 79.106 256.275 80.917ZM63.299 86.75C63.62 89.912 64.668 101.838 65.629 113.25L67.375 134H71.141C75.477 134 74.95 135.19 79.61 114.876L82.441 102.538L86.163 117.519C88.211 125.759 89.912 132.838 89.943 133.25C89.974 133.662 91.8 134 94 134C97.478 134 98.002 133.706 98.012 131.75C98.018 130.512 98.913 119.6 100 107.5C102.507 79.598 102.523 81 99.697 81C97.414 81 97.38 81.192 95.591 103.75C94.599 116.262 93.703 126.594 93.601 126.709C93.498 126.825 91.693 119.937 89.588 111.405L85.762 95.891L82.681 96.196L79.601 96.5L76.05 110.678C74.098 118.476 72.24 125.111 71.922 125.423C71.603 125.735 70.791 118.455 70.115 109.245C68.005 80.466 68.098 81 65.215 81C62.771 81 62.728 81.128 63.299 86.75ZM157 107.5V134H159.5H162V122.5V111H166.455H170.91L177.705 122.474C184.136 133.332 184.674 133.949 187.751 133.974L191.002 134L184.1 122.75L177.198 111.5L179.849 110.924C187.119 109.343 190.378 104.685 190.432 95.801C190.472 89.183 188.369 85.526 182.929 82.752C180.267 81.394 176.984 81.003 168.25 81.002L157 81V107.5ZM202 107.5V134L212.75 133.996C221.775 133.993 224.032 133.668 226.817 131.97C233.726 127.758 237.387 113.153 235.033 99.195C232.726 85.52 226.827 81 211.288 81H202V107.5ZM133.033 86.517C138.411 89.298 139.5 92.915 139.5 108C139.5 119.543 139.222 121.96 137.581 124.672C135.127 128.726 131.794 130.487 126.823 130.357C121.352 130.213 117.44 126.323 115.915 119.512C114.295 112.271 115.133 95.405 117.319 91.275C120.364 85.521 127.139 83.469 133.033 86.517ZM182.545 88.455C186.008 91.917 186.03 99.691 182.587 103.694C180.326 106.323 179.602 106.522 171.087 106.849L162 107.199V96.599V86H171.045C179.316 86 180.301 86.21 182.545 88.455ZM222.478 87.172C223.892 87.816 226.051 89.954 227.275 91.922C229.253 95.102 229.5 96.833 229.5 107.5C229.5 120.665 228.597 123.768 223.718 127.379C221.717 128.861 218.981 129.549 213.968 129.832L207 130.226V108.113V86H213.453C217.002 86 221.063 86.527 222.478 87.172Z" fill="black" stroke="white" stroke-width="2" stroke-linejoin="round" mask="url(#path-1-inside-1_125_32)"/>
</svg>
